<svg width="170" height="129" viewBox="0 0 170 129" fill="none" xmlns="http://www.w3.org/2000/svg">
<g clip-path="url(#clip0)">
<path d="M73.0977 13.4601L87.2659 103.052H89.4579L94.7225 92.8005L100.036 103.052H102.207L94.9226 89.0065L73.0977 13.4601ZM107.357 94.5435H109.3C110.846 94.5435 112.059 94.6533 112.933 94.8666C113.81 95.0829 114.568 95.5614 115.199 96.2988C115.827 97.0363 116.144 97.8865 116.144 98.8433C116.144 100.001 115.685 100.992 114.774 101.811C113.857 102.637 112.474 103.049 110.615 103.049H105.329V88.9608H107.354V94.5405L107.357 94.5435ZM107.431 96.2013V101.522H109.784C112.542 101.522 113.927 100.66 113.927 98.9317C113.927 98.4411 113.777 97.9596 113.478 97.4842C113.182 97.0119 112.751 96.6797 112.182 96.4908C111.609 96.3019 110.609 96.2044 109.168 96.2044H107.428L107.431 96.2013ZM132.295 83.5274H134.324V91.0879C135.598 89.485 137.433 88.6805 139.829 88.6805C142.135 88.6805 144.068 89.3753 145.626 90.7649C147.19 92.1514 147.966 93.9341 147.966 96.1099C147.966 98.2583 147.181 100.02 145.604 101.403C144.025 102.78 142.122 103.475 139.881 103.475C137.43 103.475 135.577 102.628 134.321 100.934V108.199H132.292V100.934C131.057 102.634 129.189 103.487 126.689 103.487C124.49 103.487 122.6 102.793 121.021 101.415C119.435 100.032 118.65 98.2644 118.65 96.1099C118.65 93.931 119.426 92.1514 120.99 90.7649C122.548 89.3722 124.487 88.6805 126.787 88.6805C129.232 88.6805 131.067 89.485 132.292 91.0879V83.5274H132.295ZM134.262 96.3415C134.262 98.0236 134.804 99.3461 135.885 100.306C136.962 101.266 138.2 101.741 139.607 101.741C141.516 101.741 143.04 101.181 144.191 100.059C145.336 98.9378 145.909 97.5878 145.909 96.0063C145.909 94.3759 145.306 93.0199 144.096 91.9411C142.88 90.8624 141.433 90.323 139.736 90.323C138.206 90.323 136.916 90.8045 135.857 91.7674C134.795 92.7304 134.262 94.254 134.262 96.3415ZM120.71 96.0184C120.71 97.5909 121.282 98.9347 122.422 100.056C123.567 101.178 125.097 101.738 127.009 101.738C127.671 101.738 128.382 101.589 129.139 101.293C129.897 100.998 130.509 100.62 130.971 100.166C131.436 99.7149 131.778 99.1907 132.012 98.5935C132.246 97.9962 132.366 97.1277 132.366 95.9788C132.366 94.1504 131.827 92.7487 130.756 91.7827C129.684 90.8106 128.394 90.326 126.876 90.326C125.174 90.326 123.718 90.8654 122.514 91.9442C121.31 93.0229 120.707 94.382 120.707 96.0215L120.71 96.0184ZM167.568 88.9608V103.049H165.554V100.626C164.698 101.549 163.735 102.244 162.67 102.71C161.604 103.174 160.437 103.408 159.172 103.408C156.925 103.408 155.007 102.683 153.415 101.239C151.826 99.7941 151.029 98.0358 151.029 95.9636C151.029 93.9371 151.836 92.2032 153.44 90.7618C155.044 89.3204 156.977 88.5982 159.231 88.5982C160.536 88.5982 161.715 88.845 162.768 89.3357C163.824 89.8293 164.751 90.5698 165.551 91.548V88.9578H167.565L167.568 88.9608ZM159.394 90.3474C158.258 90.3474 157.208 90.5942 156.241 91.0879C155.281 91.5876 154.514 92.2824 153.944 93.1814C153.375 94.0773 153.092 95.0281 153.092 96.0276C153.092 97.021 153.375 97.9718 153.948 98.8768C154.526 99.7819 155.293 100.486 156.263 100.992C157.229 101.495 158.27 101.747 159.375 101.747C160.496 101.747 161.558 101.495 162.559 100.998C163.559 100.498 164.332 99.8215 164.871 98.9652C165.413 98.112 165.684 97.149 165.684 96.0794C165.684 94.4491 165.077 93.0839 163.864 91.9868C162.654 90.8898 161.164 90.3443 159.391 90.3443L159.394 90.3474Z" fill="#E31E24"/>
<path d="M43.7856 112.697H48.062L48.0435 118.471L55.4355 112.697H58.4064L49.275 119.861L59.1484 128.348H56.2852L48.062 121.205V128.348H43.7856V112.697Z" fill="#786A5D"/>
<path d="M5.24919 100.98C1.75486 95.9641 0 90.488 0 84.5457C0 78.5181 1.76102 72.9049 5.29845 67.7214C8.82049 62.5379 13.6017 58.5062 19.6791 55.6357C25.7565 52.7498 32.3849 51.3145 39.6014 51.3145C49.7858 51.3145 58.3815 54.0267 65.3917 59.454C72.4173 64.8813 75.9209 71.1954 75.9209 78.4023C75.9209 83.6407 74.4524 88.1629 71.5368 91.966C68.6182 95.7538 64.6682 98.7128 59.6776 100.822C55.8816 102.443 52.6182 103.247 49.9243 103.247C47.9755 103.247 46.4207 102.818 45.2631 101.955C44.4011 101.309 43.9331 100.191 43.8993 98.5817C42.7602 99.7885 41.19 100.806 39.1704 101.611C37.1692 102.431 35.0973 102.83 32.9391 102.83C28.0716 102.83 24.0662 101.437 20.889 98.6518C17.7303 95.8544 16.1417 92.1641 16.1417 87.5717C16.1417 82.6046 18.0566 78.0854 21.9081 73.9776C25.7565 69.888 31.0395 67.8494 37.788 67.8494C40.7559 67.8494 43.2435 68.3095 45.2447 69.2268C47.2489 70.1592 49.1454 71.7682 50.9403 74.0629L72.6729 -0.00256348L51.8362 95.766C51.6822 96.6558 51.596 97.2287 51.596 97.4877C51.596 98.1338 51.8208 98.6366 52.3041 99.0084C52.769 99.368 53.3755 99.5538 54.1175 99.5538C56.1033 99.5538 58.6925 98.5909 61.8851 96.668C65.0623 94.7451 67.5468 92.2768 69.3263 89.2599C71.0873 86.2461 71.9678 82.9002 71.9678 79.2403C71.9678 72.1065 68.6521 66.2069 62.0082 61.5292C55.8108 57.1807 48.2495 55.011 39.3613 55.011C32.7482 55.011 26.7601 56.2604 21.3724 58.7714C16.0031 61.2824 11.7576 64.8142 8.63269 69.3791C5.50781 73.9288 3.95614 78.8533 3.95614 84.1496C3.95614 89.5037 5.52628 94.4587 8.65117 98.9779C11.7884 103.512 17.5363 109.162 25.8642 110.171L170 110.823L25.0915 113.16C15.1873 112.118 9.02061 106.383 5.24919 100.971V100.98ZM35.4575 98.0789C37.6834 98.0789 39.7738 97.506 41.7226 96.3419C43.6899 95.1657 45.2262 93.4287 46.3838 91.1036C47.8677 88.0471 48.6097 84.9754 48.6097 81.8884C48.6097 79.0605 47.6615 76.7628 45.7434 74.9984C43.8439 73.234 41.3778 72.3411 38.3391 72.3411C34.2999 72.3411 30.7963 73.7185 27.8438 76.4886C24.8913 79.2434 23.4259 82.6899 23.4259 86.8099C23.4259 90.2534 24.5465 92.996 26.7909 95.0346C29.0353 97.0581 31.9169 98.0789 35.4575 98.0789Z" fill="#786A5D"/>
<path d="M67.608 115.93C69.7416 115.93 71.5118 116.625 72.9188 118.011C74.1964 119.276 74.8307 120.772 74.8307 122.5C74.8307 124.234 74.1564 125.754 72.811 127.053C71.4595 128.351 69.7262 129 67.608 129C65.4837 129 63.7442 128.354 62.3927 127.053C61.0442 125.754 60.373 124.234 60.373 122.5C60.373 120.781 61.0073 119.288 62.2849 118.023C63.6888 116.628 65.4652 115.93 67.608 115.93ZM67.608 117.496C66.1271 117.496 64.8556 117.987 63.7935 118.971C62.7313 119.952 62.1987 121.138 62.1987 122.533C62.1987 123.429 62.4389 124.267 62.9253 125.044C63.4086 125.825 64.0613 126.422 64.8895 126.845C65.7115 127.266 66.6197 127.476 67.608 127.476C68.5932 127.476 69.4983 127.266 70.3265 126.845C71.1485 126.422 71.8074 125.825 72.2907 125.044C72.7741 124.267 73.0173 123.429 73.0173 122.533C73.0173 121.138 72.4816 119.952 71.4133 118.971C70.345 117.987 69.0796 117.496 67.6049 117.496H67.608ZM93.2228 116.25H93.7339L98.4443 128.68H96.5848L93.149 119.529L87.8166 128.68H87.4872L82.1364 119.529L78.716 128.68H76.8534L81.5884 116.25H82.0718L87.6658 125.974L93.229 116.25H93.2228ZM101.123 116.25H112.776V128.68H110.99V117.758H102.908V128.68H101.123V116.25ZM128.511 128.68H126.611L121.963 119.632L117.357 128.68H115.439L121.793 116.25H122.117L128.508 128.68H128.511ZM142.935 124.554L144.437 125.264C143.945 126.132 143.375 126.83 142.728 127.366C142.079 127.9 141.352 128.305 140.546 128.582C139.736 128.86 138.822 129 137.803 129C135.537 129 133.769 128.339 132.492 127.007C131.214 125.678 130.58 124.176 130.58 122.5C130.58 120.924 131.122 119.517 132.202 118.285C133.569 116.719 135.404 115.93 137.701 115.93C140.065 115.93 141.956 116.737 143.369 118.343C144.376 119.477 144.884 120.894 144.902 122.588H132.421C132.452 124.039 132.969 125.224 133.963 126.148C134.961 127.071 136.189 127.537 137.652 127.537C138.357 127.537 139.046 127.427 139.711 127.205C140.376 126.982 140.949 126.69 141.414 126.324C141.879 125.962 142.39 125.37 142.935 124.554ZM142.935 121.208C142.695 120.355 142.347 119.672 141.894 119.163C141.438 118.651 140.835 118.24 140.087 117.929C139.339 117.615 138.554 117.46 137.726 117.46C136.368 117.46 135.195 117.853 134.219 118.639C133.505 119.209 132.963 120.065 132.6 121.208H142.938H142.935ZM148.227 116.247H150.025V121.479L156.447 116.247H158.935L151.903 121.936L159.495 128.68H156.971L150.588 122.933L150.028 123.381V128.68H148.23V116.25L148.227 116.247ZM159.794 116.247H168.928V117.63H165.255V128.677H163.451V117.63H159.791V116.247H159.794Z" fill="#786A5D"/>
</g>
<defs>
<clipPath id="clip0">
<rect width="170" height="129" fill="white"/>
</clipPath>
</defs>
</svg>
