<svg width="20" height="15" viewBox="0 0 20 15" fill="none" xmlns="http://www.w3.org/2000/svg">
<mask id="path-1-outside-1" maskUnits="userSpaceOnUse" x="0" y="0" width="20" height="10" fill="black">
<rect fill="white" width="20" height="10"/>
<path d="M2 2L9.978 8.29839L17.956 2"/>
</mask>
<path d="M2.74357 1.05814C2.22339 0.647476 1.4688 0.736254 1.05814 1.25643C0.647476 1.77661 0.736254 2.5312 1.25643 2.94186L2.74357 1.05814ZM9.978 8.29839L9.23443 9.24025C9.6704 9.58443 10.2856 9.58443 10.7216 9.24025L9.978 8.29839ZM18.6996 2.94186C19.2197 2.5312 19.3085 1.7766 18.8978 1.25643C18.4872 0.736253 17.7326 0.647476 17.2124 1.05814L18.6996 2.94186ZM1.25643 2.94186L9.23443 9.24025L10.7216 7.35652L2.74357 1.05814L1.25643 2.94186ZM10.7216 9.24025L18.6996 2.94186L17.2124 1.05814L9.23443 7.35652L10.7216 9.24025Z" fill="white" mask="url(#path-1-outside-1)"/>
<path d="M18 13.6C18.3314 13.6 18.6 13.3314 18.6 13V2C18.6 1.66863 18.3314 1.4 18 1.4H2C1.66863 1.4 1.4 1.66863 1.4 2V13C1.4 13.3314 1.66863 13.6 2 13.6H18Z" stroke="white" stroke-width="1.2" stroke-miterlimit="10" stroke-linecap="round" stroke-linejoin="round"/>
</svg>
