<svg width="21" height="28" viewBox="0 0 21 28" fill="none" xmlns="http://www.w3.org/2000/svg">
<path d="M20.0529 10.1556C20.0529 5.099 15.7877 1 10.5266 1C5.26517 1 1 5.099 1 10.1556C1 11.8849 1.49932 13.5019 2.36615 14.8816" stroke="#E31E24" stroke-width="1.2" stroke-miterlimit="10" stroke-linecap="round" stroke-linejoin="round"/>
<path d="M2.36621 14.8816L10.5345 27.0001L18.6912 14.8743" stroke="#E31E24" stroke-width="1.2" stroke-miterlimit="10" stroke-linecap="round" stroke-linejoin="round"/>
<path d="M18.6914 14.874C19.5555 13.496 20.0532 11.8817 20.0532 10.1554" stroke="#E31E24" stroke-width="1.2" stroke-miterlimit="10" stroke-linecap="round" stroke-linejoin="round"/>
<path d="M14.5845 10.1186C14.5845 12.2724 12.7678 14.0186 10.5267 14.0186C8.28539 14.0186 6.46875 12.2724 6.46875 10.1186C6.46875 7.9646 8.28539 6.21863 10.5267 6.21863C12.7678 6.21863 14.5845 7.9646 14.5845 10.1186Z" stroke="#E31E24" stroke-width="1.2" stroke-miterlimit="10" stroke-linecap="round" stroke-linejoin="round"/>
</svg>
