<svg width="18" height="28" viewBox="0 0 18 28" fill="none" xmlns="http://www.w3.org/2000/svg">
<path d="M2.76529 1.09636H15.2341C16.1504 1.09636 16.8961 1.83606 16.8961 2.74608V25.2539C16.8961 26.1639 16.1504 26.9036 15.2341 26.9036H2.76529C1.84897 26.9036 1.10394 26.1639 1.10394 25.2539V2.74608C1.10394 1.83606 1.84897 1.09636 2.76529 1.09636ZM0 2.74608V25.2539C0 26.7677 1.24013 28 2.76529 28H15.2341C16.7592 28 18 26.7677 18 25.2539V2.74608C18 1.23139 16.7592 0 15.2341 0H2.76529C1.24013 0 0 1.23139 0 2.74608Z" fill="#E31E24"/>
<path d="M3.82144 3.99144C3.82144 3.36475 4.31127 2.85513 4.9132 2.85513H13.0868C13.6896 2.85513 14.1792 3.36475 14.1792 3.99144V19.0088C14.1792 19.6352 13.6896 20.1457 13.0868 20.1457H4.9132C4.31127 20.1457 3.82144 19.6352 3.82144 19.0088V3.99144ZM4.9132 21H13.0868C14.1421 21 15 20.1071 15 19.0088V3.99144C15 2.89374 14.1421 2 13.0868 2H4.9132C3.85871 2 3 2.89374 3 3.99144V19.0088C3 20.1071 3.85871 21 4.9132 21Z" fill="#E31E24"/>
<path d="M8.99955 25.2975C8.28422 25.2975 7.7024 24.7156 7.7024 24.0001C7.7024 23.2844 8.28422 22.7018 8.99955 22.7018C9.71488 22.7018 10.2967 23.2844 10.2967 24.0001C10.2967 24.7156 9.71488 25.2975 8.99955 25.2975ZM8.99955 22C7.89711 22 7 22.8966 7 24.0001C7 25.1027 7.89711 26 8.99955 26C10.1029 26 11 25.1027 11 24.0001C11 22.8966 10.1029 22 8.99955 22Z" fill="#E31E24"/>
</svg>
