<svg width="22" height="22" viewBox="0 0 22 22" fill="none" xmlns="http://www.w3.org/2000/svg">
<mask id="path-1-outside-1" maskUnits="userSpaceOnUse" x="0" y="0" width="22" height="22" fill="black">
<rect fill="white" width="22" height="22"/>
<path fill-rule="evenodd" clip-rule="evenodd" d="M1.7056 10.9475C1.7056 5.84315 5.84052 1.7056 10.9406 1.7056C16.0406 1.7056 20.1755 5.84315 20.1755 10.9475C20.1755 16.0519 16.0406 20.1894 10.9406 20.1894C5.84052 20.1894 1.7056 16.0519 1.7056 10.9475ZM10.9406 1C5.45035 1 1 5.45394 1 10.9475C1 16.4411 5.45035 20.895 10.9406 20.895C16.4308 20.895 20.8811 16.4411 20.8811 10.9475C20.8811 5.45394 16.4308 1 10.9406 1ZM11.3528 6C11.3528 5.80515 11.1948 5.6472 11 5.6472C10.8052 5.6472 10.6472 5.80515 10.6472 6V11.1618C10.6472 11.2588 10.6871 11.3515 10.7575 11.4181L13.7575 14.2563C13.8991 14.3902 14.1224 14.384 14.2563 14.2425C14.3902 14.1009 14.384 13.8776 14.2425 13.7437L11.3528 11.0099V6Z"/>
</mask>
<path fill-rule="evenodd" clip-rule="evenodd" d="M1.7056 10.9475C1.7056 5.84315 5.84052 1.7056 10.9406 1.7056C16.0406 1.7056 20.1755 5.84315 20.1755 10.9475C20.1755 16.0519 16.0406 20.1894 10.9406 20.1894C5.84052 20.1894 1.7056 16.0519 1.7056 10.9475ZM10.9406 1C5.45035 1 1 5.45394 1 10.9475C1 16.4411 5.45035 20.895 10.9406 20.895C16.4308 20.895 20.8811 16.4411 20.8811 10.9475C20.8811 5.45394 16.4308 1 10.9406 1ZM11.3528 6C11.3528 5.80515 11.1948 5.6472 11 5.6472C10.8052 5.6472 10.6472 5.80515 10.6472 6V11.1618C10.6472 11.2588 10.6871 11.3515 10.7575 11.4181L13.7575 14.2563C13.8991 14.3902 14.1224 14.384 14.2563 14.2425C14.3902 14.1009 14.384 13.8776 14.2425 13.7437L11.3528 11.0099V6Z" fill="#E31E24"/>
<path d="M10.7575 11.4181L10.5514 11.636L10.5514 11.636L10.7575 11.4181ZM13.7575 14.2563L13.5514 14.4742L13.7575 14.2563ZM14.2425 13.7437L14.0363 13.9616L14.2425 13.7437ZM11.3528 11.0099H11.0528C11.0528 11.0924 11.0867 11.1712 11.1466 11.2279L11.3528 11.0099ZM10.9406 1.4056C5.67464 1.4056 1.4056 5.67766 1.4056 10.9475H2.0056C2.0056 6.00863 6.00641 2.0056 10.9406 2.0056V1.4056ZM20.4755 10.9475C20.4755 5.67766 16.2065 1.4056 10.9406 1.4056V2.0056C15.8747 2.0056 19.8755 6.00863 19.8755 10.9475H20.4755ZM10.9406 20.4894C16.2065 20.4894 20.4755 16.2173 20.4755 10.9475H19.8755C19.8755 15.8864 15.8747 19.8894 10.9406 19.8894V20.4894ZM1.4056 10.9475C1.4056 16.2173 5.67464 20.4894 10.9406 20.4894V19.8894C6.00641 19.8894 2.0056 15.8864 2.0056 10.9475H1.4056ZM1.3 10.9475C1.3 5.61941 5.61624 1.3 10.9406 1.3V0.7C5.28446 0.7 0.7 5.28846 0.7 10.9475H1.3ZM10.9406 20.595C5.61624 20.595 1.3 16.2756 1.3 10.9475H0.7C0.7 16.6066 5.28446 21.195 10.9406 21.195V20.595ZM20.5811 10.9475C20.5811 16.2756 16.2649 20.595 10.9406 20.595V21.195C16.5967 21.195 21.1811 16.6066 21.1811 10.9475H20.5811ZM10.9406 1.3C16.2649 1.3 20.5811 5.61941 20.5811 10.9475H21.1811C21.1811 5.28846 16.5967 0.7 10.9406 0.7V1.3ZM11 5.9472C11.0292 5.9472 11.0528 5.97084 11.0528 6H11.6528C11.6528 5.63947 11.3605 5.3472 11 5.3472V5.9472ZM10.9472 6C10.9472 5.97084 10.9708 5.9472 11 5.9472V5.3472C10.6395 5.3472 10.3472 5.63947 10.3472 6H10.9472ZM10.9472 11.1618V6H10.3472V11.1618H10.9472ZM10.9637 11.2002C10.9532 11.1902 10.9472 11.1763 10.9472 11.1618H10.3472C10.3472 11.3412 10.421 11.5127 10.5514 11.636L10.9637 11.2002ZM13.9637 14.0384L10.9637 11.2002L10.5514 11.636L13.5514 14.4742L13.9637 14.0384ZM14.0384 14.0363C14.0183 14.0575 13.9849 14.0584 13.9637 14.0384L13.5514 14.4742C13.8133 14.722 14.2264 14.7105 14.4742 14.4486L14.0384 14.0363ZM14.0363 13.9616C14.0575 13.9817 14.0584 14.0151 14.0384 14.0363L14.4742 14.4486C14.722 14.1867 14.7105 13.7736 14.4486 13.5258L14.0363 13.9616ZM11.1466 11.2279L14.0363 13.9616L14.4486 13.5258L11.559 10.792L11.1466 11.2279ZM11.0528 6V11.0099H11.6528V6H11.0528Z" fill="#E31E24" mask="url(#path-1-outside-1)"/>
</svg>
